<svg width="1280" height="720" viewBox="0 0 1280 720" xmlns="http://www.w3.org/2000/svg" data-background-id="bg_3d_cube_stack">
  <rect x="0" y="0" width="1280" height="720" fill="#FFFFFF"/>
  <path d="M1002 108 L1128 68 L1228 124 L1102 168 Z" fill="#F6F6F6"/>
  <path d="M1102 168 L1228 124 L1228 254 L1102 302 Z" fill="#E6E6E6" fill-opacity="0.72"/>
  <path d="M1002 108 L1102 168 L1102 302 L1002 240 Z" fill="#EE0033" fill-opacity="0.12"/>
  <path d="M856 230 L994 184 L1102 248 L964 298 Z" fill="#FFFFFF"/>
  <path d="M964 298 L1102 248 L1102 390 L964 444 Z" fill="#EE0033" fill-opacity="0.16"/>
  <path d="M856 230 L964 298 L964 444 L856 374 Z" fill="#E6E6E6" fill-opacity="0.78"/>
  <path d="M1032 356 L1178 306 L1272 360 L1126 414 Z" fill="#F6F6F6"/>
  <path d="M1126 414 L1272 360 L1272 502 L1126 560 Z" fill="#E6E6E6" fill-opacity="0.78"/>
  <path d="M1032 356 L1126 414 L1126 560 L1032 498 Z" fill="#EE0033" fill-opacity="0.22"/>
  <path d="M760 430 L904 382 L1014 446 L870 498 Z" fill="#F6F6F6"/>
  <path d="M870 498 L1014 446 L1014 594 L870 650 Z" fill="#E6E6E6" fill-opacity="0.72"/>
  <path d="M760 430 L870 498 L870 650 L760 580 Z" fill="#EE0033" fill-opacity="0.1"/>
  <path d="M760 580 L870 650 L1126 560 L1014 594 Z" fill="#B3B3B3" fill-opacity="0.12"/>
  <path d="M874 166 C996 198 1094 270 1176 382" stroke="#EE0033" stroke-width="3" stroke-opacity="0.12" fill="none"/>
  <path d="M828 198 C980 240 1094 332 1208 500" stroke="#B3B3B3" stroke-width="2" stroke-opacity="0.22" fill="none"/>
  <circle cx="1128" cy="114" r="7" fill="#EE0033" fill-opacity="0.36"/>
  <circle cx="966" cy="428" r="6" fill="#EE0033" fill-opacity="0.24"/>
  <rect x="0" y="0" width="18" height="720" fill="#EE0033"/>
  <rect x="18" y="0" width="6" height="720" fill="#E6E6E6"/>
</svg>
