<svg width="1280" height="720" viewBox="0 0 1280 720" xmlns="http://www.w3.org/2000/svg" data-background-id="bg_3d_glass_panels">
  <defs>
    <linearGradient id="glassPanelWash" x1="100%" y1="0%" x2="36%" y2="82%">
      <stop offset="0%" stop-color="#EE0033" stop-opacity="0.14"/>
      <stop offset="100%" stop-color="#EE0033" stop-opacity="0"/>
    </linearGradient>
  </defs>
  <rect x="0" y="0" width="1280" height="720" fill="#FFFFFF"/>
  <rect x="0" y="0" width="1280" height="720" fill="url(#glassPanelWash)"/>
  <path d="M780 128 L1020 86 L1096 128 L856 174 Z" fill="#FFFFFF" fill-opacity="0.78" stroke="#E6E6E6" stroke-width="1.5"/>
  <path d="M856 174 L1096 128 L1096 346 L856 398 Z" fill="#F6F6F6" fill-opacity="0.68" stroke="#E6E6E6" stroke-width="1.5"/>
  <path d="M780 128 L856 174 L856 398 L780 348 Z" fill="#EE0033" fill-opacity="0.08"/>
  <path d="M892 224 H1038" stroke="#EE0033" stroke-width="5" stroke-opacity="0.22"/>
  <path d="M892 266 H1004" stroke="#B3B3B3" stroke-width="4" stroke-opacity="0.34"/>
  <path d="M892 306 H1056" stroke="#B3B3B3" stroke-width="4" stroke-opacity="0.26"/>
  <path d="M938 326 L1118 280 L1224 342 L1042 394 Z" fill="#FFFFFF" fill-opacity="0.78" stroke="#E6E6E6" stroke-width="1.5"/>
  <path d="M1042 394 L1224 342 L1224 572 L1042 630 Z" fill="#F6F6F6" fill-opacity="0.68" stroke="#E6E6E6" stroke-width="1.5"/>
  <path d="M938 326 L1042 394 L1042 630 L938 558 Z" fill="#EE0033" fill-opacity="0.12"/>
  <path d="M1074 432 H1170" stroke="#EE0033" stroke-width="5" stroke-opacity="0.22"/>
  <path d="M1074 474 H1190" stroke="#B3B3B3" stroke-width="4" stroke-opacity="0.3"/>
  <path d="M1074 516 H1154" stroke="#B3B3B3" stroke-width="4" stroke-opacity="0.24"/>
  <path d="M712 410 C844 428 962 488 1076 606" stroke="#EE0033" stroke-width="3" stroke-opacity="0.1" fill="none"/>
  <circle cx="820" cy="154" r="6" fill="#EE0033" fill-opacity="0.34"/>
  <circle cx="980" cy="358" r="8" fill="#EE0033" fill-opacity="0.24"/>
  <rect x="0" y="0" width="18" height="720" fill="#EE0033"/>
  <rect x="18" y="0" width="6" height="720" fill="#E6E6E6"/>
</svg>
