<svg width="1280" height="720" viewBox="0 0 1280 720" xmlns="http://www.w3.org/2000/svg" data-background-id="bg_circuit_trace">
  <rect x="0" y="0" width="1280" height="720" fill="#FFFFFF"/>
  <path d="M742 154 H910 V228 H1048 V164 H1190" stroke="#E6E6E6" stroke-width="3" fill="none"/>
  <path d="M812 304 H932 V386 H1080 V326 H1214" stroke="#E6E6E6" stroke-width="3" fill="none"/>
  <path d="M744 528 H880 V462 H1016 V528 H1188" stroke="#E6E6E6" stroke-width="3" fill="none"/>
  <path d="M910 228 V304 M1048 164 V326 M932 386 V462 M1080 326 V528" stroke="#F2F2F2" stroke-width="3" fill="none"/>
  <path d="M742 154 H910 V228 H1048" stroke="#EE0033" stroke-width="3" stroke-opacity="0.28" fill="none"/>
  <path d="M812 304 H932 V386 H1080" stroke="#EE0033" stroke-width="3" stroke-opacity="0.18" fill="none"/>
  <circle cx="742" cy="154" r="6" fill="#999999" fill-opacity="0.42"/>
  <circle cx="910" cy="228" r="7" fill="#EE0033" fill-opacity="0.38"/>
  <circle cx="1048" cy="164" r="7" fill="#EE0033" fill-opacity="0.3"/>
  <circle cx="1190" cy="164" r="5" fill="#999999" fill-opacity="0.42"/>
  <circle cx="812" cy="304" r="6" fill="#999999" fill-opacity="0.42"/>
  <circle cx="932" cy="386" r="7" fill="#EE0033" fill-opacity="0.28"/>
  <circle cx="1080" cy="326" r="7" fill="#EE0033" fill-opacity="0.24"/>
  <circle cx="1188" cy="528" r="5" fill="#999999" fill-opacity="0.42"/>
  <rect x="96" y="136" width="430" height="1" fill="#F2F2F2"/>
  <rect x="96" y="186" width="310" height="1" fill="#F2F2F2"/>
</svg>
