<svg width="1280" height="720" viewBox="0 0 1280 720" xmlns="http://www.w3.org/2000/svg" data-background-id="bg_chapter_watermark_field">
  <rect x="0" y="0" width="1280" height="720" fill="#FFFFFF"/>
  <rect x="0" y="0" width="18" height="720" fill="#EE0033"/>
  <rect x="18" y="0" width="6" height="720" fill="#E6E6E6"/>
  <path d="M870 128 H1128 C1170 128 1204 162 1204 204 V456 C1204 498 1170 532 1128 532 H870 C828 532 794 498 794 456 V204 C794 162 828 128 870 128 Z" fill="#F2F2F2" stroke="#E6E6E6" stroke-width="1"/>
  <path d="M914 184 H1084 C1120 184 1148 212 1148 248 V412 C1148 448 1120 476 1084 476 H914 C878 476 850 448 850 412 V248 C850 212 878 184 914 184 Z" fill="#FFFFFF" fill-opacity="0.82"/>
  <rect x="850" y="184" width="48" height="292" fill="#EE0033" fill-opacity="0.12"/>
  <rect x="920" y="236" width="160" height="12" rx="6" fill="#E6E6E6"/>
  <rect x="920" y="292" width="188" height="12" rx="6" fill="#F2F2F2"/>
  <rect x="920" y="348" width="132" height="12" rx="6" fill="#E6E6E6"/>
  <circle cx="1110" cy="430" r="52" fill="#EE0033" fill-opacity="0.1"/>
  <rect x="110" y="238" width="90" height="10" rx="5" fill="#EE0033"/>
  <rect x="110" y="620" width="990" height="1" fill="#E6E6E6"/>
</svg>
