<svg width="1280" height="720" viewBox="0 0 1280 720" xmlns="http://www.w3.org/2000/svg" data-background-id="bg_cloud_edge">
  <rect x="0" y="0" width="1280" height="720" fill="#FFFFFF"/>
  <circle cx="910" cy="514" r="92" fill="#F2F2F2"/>
  <circle cx="1008" cy="470" r="124" fill="#F2F2F2"/>
  <circle cx="1136" cy="522" r="104" fill="#F2F2F2"/>
  <rect x="866" y="514" width="402" height="126" rx="63" fill="#F2F2F2"/>
  <circle cx="936" cy="508" r="52" fill="#FFFFFF" fill-opacity="0.74"/>
  <circle cx="1068" cy="476" r="68" fill="#FFFFFF" fill-opacity="0.66"/>
  <circle cx="1162" cy="546" r="46" fill="#FFFFFF" fill-opacity="0.74"/>
  <path d="M812 548 C900 524 960 570 1034 532 C1110 494 1162 520 1220 486" stroke="#E6E6E6" stroke-width="3" fill="none"/>
  <path d="M872 600 C964 576 1032 612 1124 580" stroke="#EE0033" stroke-width="3" stroke-opacity="0.16" fill="none"/>
  <circle cx="1034" cy="532" r="6" fill="#EE0033" fill-opacity="0.28"/>
  <rect x="96" y="148" width="368" height="1" fill="#F2F2F2"/>
  <rect x="96" y="198" width="268" height="1" fill="#F2F2F2"/>
</svg>
