<svg width="1280" height="720" viewBox="0 0 1280 720" xmlns="http://www.w3.org/2000/svg" data-background-id="bg_closing_focus">
  <defs>
    <radialGradient id="closingFocusGlow" cx="34%" cy="46%" r="58%">
      <stop offset="0%" stop-color="#EE0033" stop-opacity="0.16"/>
      <stop offset="54%" stop-color="#EE0033" stop-opacity="0.05"/>
      <stop offset="100%" stop-color="#EE0033" stop-opacity="0"/>
    </radialGradient>
  </defs>
  <rect x="0" y="0" width="1280" height="720" fill="#FFFFFF"/>
  <rect x="0" y="0" width="1280" height="720" fill="url(#closingFocusGlow)"/>
  <rect x="0" y="0" width="18" height="720" fill="#EE0033"/>
  <rect x="18" y="0" width="6" height="720" fill="#E6E6E6"/>
  <rect x="116" y="170" width="840" height="290" rx="12" fill="#F2F2F2" fill-opacity="0.86" stroke="#E6E6E6" stroke-width="1"/>
  <rect x="116" y="170" width="8" height="290" rx="4" fill="#EE0033"/>
  <circle cx="1028" cy="230" r="90" fill="#FFFFFF" fill-opacity="0.62"/>
  <circle cx="1086" cy="282" r="44" fill="#EE0033" fill-opacity="0.08"/>
  <path d="M986 512 C1060 482 1136 498 1214 560" stroke="#E6E6E6" stroke-width="3" fill="none"/>
  <path d="M1032 554 C1090 532 1150 544 1214 590" stroke="#EE0033" stroke-width="3" stroke-opacity="0.16" fill="none"/>
  <rect x="116" y="508" width="112" height="6" rx="3" fill="#EE0033"/>
  <rect x="240" y="508" width="70" height="6" rx="3" fill="#E6E6E6"/>
</svg>
