<svg width="1280" height="720" viewBox="0 0 1280 720" xmlns="http://www.w3.org/2000/svg" data-background-id="bg_data_pulse">
  <rect x="0" y="0" width="1280" height="720" fill="#FFFFFF"/>
  <path d="M86 552 C210 500 270 430 390 450 C512 472 570 348 684 352 C812 356 856 250 982 260 C1082 268 1132 214 1210 176" stroke="#E6E6E6" stroke-width="3" fill="none"/>
  <path d="M86 552 C210 500 270 430 390 450 C512 472 570 348 684 352 C812 356 856 250 982 260" stroke="#EE0033" stroke-width="3" stroke-opacity="0.28" fill="none"/>
  <circle cx="86" cy="552" r="5" fill="#EE0033" fill-opacity="0.54"/>
  <circle cx="390" cy="450" r="6" fill="#EE0033" fill-opacity="0.42"/>
  <circle cx="684" cy="352" r="7" fill="#EE0033" fill-opacity="0.5"/>
  <circle cx="982" cy="260" r="6" fill="#EE0033" fill-opacity="0.46"/>
  <circle cx="1210" cy="176" r="4" fill="#999999" fill-opacity="0.52"/>
  <rect x="780" y="116" width="340" height="1" fill="#E6E6E6"/>
  <rect x="820" y="146" width="260" height="1" fill="#F2F2F2"/>
  <rect x="860" y="176" width="180" height="1" fill="#F2F2F2"/>
  <circle cx="1052" cy="560" r="92" fill="#F2F2F2" fill-opacity="0.48"/>
  <circle cx="1128" cy="606" r="34" fill="#EE0033" fill-opacity="0.08"/>
</svg>
