<svg width="1280" height="720" viewBox="0 0 1280 720" xmlns="http://www.w3.org/2000/svg" data-background-id="bg_growth_path">
  <rect x="0" y="0" width="1280" height="720" fill="#FFFFFF"/>
  <path d="M108 560 C230 522 306 470 394 476 C510 484 556 384 662 382 C786 380 834 286 944 282 C1058 278 1132 210 1202 136" stroke="#E6E6E6" stroke-width="12" stroke-linecap="round" fill="none"/>
  <path d="M108 560 C230 522 306 470 394 476 C510 484 556 384 662 382 C786 380 834 286 944 282 C1058 278 1132 210 1202 136" stroke="#EE0033" stroke-width="3" stroke-opacity="0.32" stroke-linecap="round" fill="none"/>
  <circle cx="108" cy="560" r="10" fill="#FFFFFF" stroke="#EE0033" stroke-width="3" stroke-opacity="0.54"/>
  <circle cx="394" cy="476" r="10" fill="#FFFFFF" stroke="#EE0033" stroke-width="3" stroke-opacity="0.46"/>
  <circle cx="662" cy="382" r="10" fill="#FFFFFF" stroke="#EE0033" stroke-width="3" stroke-opacity="0.46"/>
  <circle cx="944" cy="282" r="10" fill="#FFFFFF" stroke="#EE0033" stroke-width="3" stroke-opacity="0.46"/>
  <circle cx="1202" cy="136" r="10" fill="#EE0033" fill-opacity="0.48"/>
  <rect x="96" y="594" width="104" height="4" rx="2" fill="#F2F2F2"/>
  <rect x="382" y="510" width="104" height="4" rx="2" fill="#F2F2F2"/>
  <rect x="650" y="416" width="104" height="4" rx="2" fill="#F2F2F2"/>
  <rect x="932" y="316" width="104" height="4" rx="2" fill="#F2F2F2"/>
</svg>
