<svg width="1280" height="720" viewBox="0 0 1280 720" xmlns="http://www.w3.org/2000/svg" data-background-id="bg_kpi_band">
  <rect x="0" y="0" width="1280" height="720" fill="#FFFFFF"/>
  <rect x="0" y="574" width="1280" height="146" fill="#F2F2F2" fill-opacity="0.72"/>
  <rect x="0" y="574" width="1280" height="4" fill="#EE0033" fill-opacity="0.78"/>
  <rect x="96" y="608" width="168" height="58" rx="8" fill="#FFFFFF" stroke="#E6E6E6" stroke-width="1"/>
  <rect x="286" y="608" width="168" height="58" rx="8" fill="#FFFFFF" stroke="#E6E6E6" stroke-width="1"/>
  <rect x="476" y="608" width="168" height="58" rx="8" fill="#FFFFFF" stroke="#E6E6E6" stroke-width="1"/>
  <rect x="112" y="624" width="48" height="6" rx="3" fill="#EE0033" fill-opacity="0.5"/>
  <rect x="302" y="624" width="48" height="6" rx="3" fill="#EE0033" fill-opacity="0.42"/>
  <rect x="492" y="624" width="48" height="6" rx="3" fill="#EE0033" fill-opacity="0.36"/>
  <rect x="112" y="646" width="116" height="3" rx="1.5" fill="#E6E6E6"/>
  <rect x="302" y="646" width="116" height="3" rx="1.5" fill="#E6E6E6"/>
  <rect x="492" y="646" width="116" height="3" rx="1.5" fill="#E6E6E6"/>
  <circle cx="1134" cy="560" r="76" fill="#EE0033" fill-opacity="0.07"/>
  <circle cx="1188" cy="608" r="34" fill="#EE0033" fill-opacity="0.11"/>
</svg>
