<svg width="1280" height="720" viewBox="0 0 1280 720" xmlns="http://www.w3.org/2000/svg" data-background-id="bg_mosaic_dots">
  <rect x="0" y="0" width="1280" height="720" fill="#FFFFFF"/>
  <circle cx="790" cy="154" r="5" fill="#E6E6E6"/>
  <circle cx="842" cy="154" r="5" fill="#F2F2F2"/>
  <circle cx="894" cy="154" r="5" fill="#E6E6E6"/>
  <circle cx="946" cy="154" r="5" fill="#EE0033" fill-opacity="0.26"/>
  <circle cx="998" cy="154" r="5" fill="#F2F2F2"/>
  <circle cx="1050" cy="154" r="5" fill="#E6E6E6"/>
  <circle cx="1102" cy="154" r="5" fill="#F2F2F2"/>
  <circle cx="1154" cy="154" r="5" fill="#E6E6E6"/>
  <circle cx="816" cy="206" r="5" fill="#F2F2F2"/>
  <circle cx="868" cy="206" r="5" fill="#E6E6E6"/>
  <circle cx="920" cy="206" r="5" fill="#F2F2F2"/>
  <circle cx="972" cy="206" r="5" fill="#E6E6E6"/>
  <circle cx="1024" cy="206" r="5" fill="#EE0033" fill-opacity="0.22"/>
  <circle cx="1076" cy="206" r="5" fill="#F2F2F2"/>
  <circle cx="1128" cy="206" r="5" fill="#E6E6E6"/>
  <circle cx="842" cy="258" r="5" fill="#E6E6E6"/>
  <circle cx="894" cy="258" r="5" fill="#F2F2F2"/>
  <circle cx="946" cy="258" r="5" fill="#E6E6E6"/>
  <circle cx="998" cy="258" r="5" fill="#F2F2F2"/>
  <circle cx="1050" cy="258" r="5" fill="#E6E6E6"/>
  <circle cx="1102" cy="258" r="5" fill="#EE0033" fill-opacity="0.2"/>
  <circle cx="868" cy="310" r="5" fill="#F2F2F2"/>
  <circle cx="920" cy="310" r="5" fill="#E6E6E6"/>
  <circle cx="972" cy="310" r="5" fill="#F2F2F2"/>
  <circle cx="1024" cy="310" r="5" fill="#E6E6E6"/>
  <circle cx="1076" cy="310" r="5" fill="#F2F2F2"/>
  <path d="M790 154 H1154 M816 206 H1128 M842 258 H1102 M868 310 H1076" stroke="#F2F2F2" stroke-width="1"/>
  <path d="M946 154 L1024 206 L1102 258" stroke="#EE0033" stroke-width="2" stroke-opacity="0.12" fill="none"/>
  <circle cx="1118" cy="530" r="82" fill="#F2F2F2" fill-opacity="0.44"/>
  <circle cx="1176" cy="582" r="34" fill="#EE0033" fill-opacity="0.08"/>
</svg>
