<svg width="1280" height="720" viewBox="0 0 1280 720" xmlns="http://www.w3.org/2000/svg" data-background-id="bg_network_texture_light">
  <rect x="0" y="0" width="1280" height="720" fill="#FFFFFF"/>
  <path d="M738 146 L862 112 L996 178 L1110 122 L1210 210" stroke="#E6E6E6" stroke-width="1.5" fill="none"/>
  <path d="M788 292 L930 244 L1058 312 L1184 276" stroke="#E6E6E6" stroke-width="1.5" fill="none"/>
  <path d="M812 468 L938 396 L1082 458 L1210 398" stroke="#E6E6E6" stroke-width="1.5" fill="none"/>
  <path d="M862 112 L930 244 L938 396" stroke="#F2F2F2" stroke-width="1.5" fill="none"/>
  <path d="M996 178 L1058 312 L1082 458" stroke="#F2F2F2" stroke-width="1.5" fill="none"/>
  <path d="M1110 122 L1184 276 L1210 398" stroke="#F2F2F2" stroke-width="1.5" fill="none"/>
  <circle cx="738" cy="146" r="4" fill="#999999" fill-opacity="0.46"/>
  <circle cx="862" cy="112" r="5" fill="#EE0033" fill-opacity="0.38"/>
  <circle cx="996" cy="178" r="4" fill="#999999" fill-opacity="0.46"/>
  <circle cx="1110" cy="122" r="6" fill="#EE0033" fill-opacity="0.5"/>
  <circle cx="1210" cy="210" r="4" fill="#999999" fill-opacity="0.42"/>
  <circle cx="788" cy="292" r="4" fill="#999999" fill-opacity="0.42"/>
  <circle cx="930" cy="244" r="5" fill="#EE0033" fill-opacity="0.36"/>
  <circle cx="1058" cy="312" r="4" fill="#999999" fill-opacity="0.46"/>
  <circle cx="1184" cy="276" r="5" fill="#EE0033" fill-opacity="0.34"/>
  <circle cx="812" cy="468" r="4" fill="#999999" fill-opacity="0.38"/>
  <circle cx="938" cy="396" r="4" fill="#999999" fill-opacity="0.42"/>
  <circle cx="1082" cy="458" r="6" fill="#EE0033" fill-opacity="0.42"/>
  <circle cx="1210" cy="398" r="4" fill="#999999" fill-opacity="0.42"/>
  <rect x="0" y="0" width="18" height="720" fill="#EE0033"/>
  <rect x="18" y="0" width="6" height="720" fill="#E6E6E6"/>
</svg>
