<svg width="1280" height="720" viewBox="0 0 1280 720" xmlns="http://www.w3.org/2000/svg" data-background-id="bg_radial_dashboard_field">
  <rect x="0" y="0" width="1280" height="720" fill="#FFFFFF"/>
  <circle cx="1046" cy="372" r="238" fill="#F2F2F2" fill-opacity="0.62"/>
  <circle cx="1046" cy="372" r="188" fill="#FFFFFF" fill-opacity="0.82" stroke="#E6E6E6" stroke-width="1"/>
  <circle cx="1046" cy="372" r="132" fill="none" stroke="#E6E6E6" stroke-width="2"/>
  <circle cx="1046" cy="372" r="82" fill="none" stroke="#F2F2F2" stroke-width="10"/>
  <path d="M1046 184 A188 188 0 0 1 1228 324" stroke="#EE0033" stroke-width="8" stroke-opacity="0.26" fill="none" stroke-linecap="round"/>
  <path d="M1182 504 A188 188 0 0 1 988 552" stroke="#EE0033" stroke-width="8" stroke-opacity="0.18" fill="none" stroke-linecap="round"/>
  <path d="M1046 372 L1212 372 M1046 372 L948 226 M1046 372 L930 516" stroke="#E6E6E6" stroke-width="1.5"/>
  <circle cx="1046" cy="372" r="12" fill="#EE0033" fill-opacity="0.48"/>
  <rect x="118" y="138" width="420" height="1" fill="#E6E6E6"/>
  <rect x="118" y="188" width="312" height="1" fill="#F2F2F2"/>
  <rect x="118" y="238" width="360" height="1" fill="#F2F2F2"/>
</svg>
