<svg width="1280" height="720" viewBox="0 0 1280 720" xmlns="http://www.w3.org/2000/svg" data-background-id="bg_red_corner_depth">
  <defs>
    <linearGradient id="redCornerDepthMain" x1="100%" y1="100%" x2="22%" y2="14%">
      <stop offset="0%" stop-color="#EE0033" stop-opacity="0.96"/>
      <stop offset="100%" stop-color="#EE0033" stop-opacity="0"/>
    </linearGradient>
    <linearGradient id="redCornerDepthSoft" x1="100%" y1="15%" x2="42%" y2="70%">
      <stop offset="0%" stop-color="#EE0033" stop-opacity="0.28"/>
      <stop offset="100%" stop-color="#EE0033" stop-opacity="0"/>
    </linearGradient>
  </defs>
  <rect x="0" y="0" width="1280" height="720" fill="#FFFFFF"/>
  <path d="M1280 0 V720 H872 C948 650 1018 564 1084 462 C1174 324 1232 178 1280 0 Z" fill="url(#redCornerDepthMain)"/>
  <path d="M1032 0 H1280 V306 C1212 206 1130 106 1032 0 Z" fill="url(#redCornerDepthSoft)"/>
  <path d="M1012 508 L1280 356 V720 H900 Z" fill="#EE0033" fill-opacity="0.16"/>
  <path d="M1084 532 L1280 424 V720 H976 Z" fill="#EE0033" fill-opacity="0.34"/>
  <path d="M1168 556 L1280 498 V720 H1064 Z" fill="#EE0033" fill-opacity="0.78"/>
  <path d="M924 112 C1040 148 1124 222 1178 330" stroke="#EE0033" stroke-width="3" stroke-opacity="0.14" fill="none"/>
  <path d="M884 166 C990 204 1062 272 1112 370" stroke="#B3B3B3" stroke-width="2" stroke-opacity="0.24" fill="none"/>
  <circle cx="1160" cy="176" r="76" fill="#FFFFFF" fill-opacity="0.22"/>
  <circle cx="1218" cy="628" r="10" fill="#FFFFFF" fill-opacity="0.74"/>
  <rect x="0" y="0" width="18" height="720" fill="#EE0033"/>
  <rect x="18" y="0" width="6" height="720" fill="#E6E6E6"/>
</svg>
