<svg width="1280" height="720" viewBox="0 0 1280 720" xmlns="http://www.w3.org/2000/svg" data-background-id="bg_signal_arc">
  <rect x="0" y="0" width="1280" height="720" fill="#FFFFFF"/>
  <path d="M1016 670 A540 540 0 0 0 610 96" stroke="#EE0033" stroke-width="4" stroke-opacity="0.12" fill="none"/>
  <path d="M1070 652 A468 468 0 0 0 710 130" stroke="#EE0033" stroke-width="3" stroke-opacity="0.18" fill="none"/>
  <path d="M1122 622 A390 390 0 0 0 800 174" stroke="#E6E6E6" stroke-width="3" fill="none"/>
  <path d="M82 604 A318 318 0 0 1 330 196" stroke="#EE0033" stroke-width="3" stroke-opacity="0.14" fill="none"/>
  <path d="M118 584 A260 260 0 0 1 344 264" stroke="#E6E6E6" stroke-width="2" fill="none"/>
  <circle cx="1070" cy="652" r="8" fill="#EE0033" fill-opacity="0.78"/>
  <circle cx="344" cy="264" r="6" fill="#EE0033" fill-opacity="0.58"/>
  <rect x="0" y="0" width="18" height="720" fill="#EE0033"/>
  <rect x="18" y="0" width="6" height="720" fill="#E6E6E6"/>
</svg>
