<svg width="1280" height="720" viewBox="0 0 1280 720" xmlns="http://www.w3.org/2000/svg" data-background-id="bg_security_shield_field">
  <rect x="0" y="0" width="1280" height="720" fill="#FFFFFF"/>
  <path d="M1014 112 L1192 180 V314 C1192 426 1130 512 1014 584 C898 512 836 426 836 314 V180 Z" fill="#F2F2F2" stroke="#E6E6E6" stroke-width="1.5"/>
  <path d="M1014 174 L1138 222 V318 C1138 394 1096 456 1014 508 C932 456 890 394 890 318 V222 Z" fill="#FFFFFF" fill-opacity="0.82" stroke="#E6E6E6" stroke-width="1"/>
  <path d="M1014 214 L1094 246 V322 C1094 374 1068 418 1014 454 C960 418 934 374 934 322 V246 Z" fill="#F2F2F2" fill-opacity="0.76"/>
  <path d="M934 322 C968 338 1018 342 1094 322" stroke="#EE0033" stroke-width="4" stroke-opacity="0.18" fill="none"/>
  <circle cx="1014" cy="320" r="14" fill="#EE0033" fill-opacity="0.3"/>
  <path d="M836 180 L1014 320 L1192 180" stroke="#E6E6E6" stroke-width="1" fill="none"/>
  <rect x="96" y="584" width="118" height="6" rx="3" fill="#EE0033" fill-opacity="0.68"/>
  <rect x="226" y="584" width="68" height="6" rx="3" fill="#E6E6E6"/>
</svg>
