<svg width="1280" height="720" viewBox="0 0 1280 720" xmlns="http://www.w3.org/2000/svg" data-background-id="bg_service_ripple_dual" data-safe-text-zone="x=96-710,y=130-580" data-viettel-blue-scope="background">
  <defs>
    <linearGradient id="rippleWash" x1="0%" y1="50%" x2="100%" y2="50%" data-viettel-blue-scope="background">
      <stop offset="0%" stop-color="#FFFFFF" stop-opacity="0"/>
      <stop offset="100%" stop-color="#12436D" stop-opacity="0.08"/>
    </linearGradient>
  </defs>
  <rect width="1280" height="720" fill="#FFFFFF"/>
  <path d="M754 0 H1280 V720 H792 C856 590 882 478 876 354 C868 214 830 102 754 0 Z" fill="url(#rippleWash)"/>
  <g id="service-ripples" fill="none">
    <path d="M822 216 C916 168 1024 168 1118 216 C1208 262 1252 262 1280 246" stroke="#12436D" stroke-width="3" stroke-opacity="0.18"/>
    <path d="M802 292 C908 240 1028 240 1134 292 C1214 330 1250 330 1280 316" stroke="#EE0033" stroke-width="3" stroke-opacity="0.28"/>
    <path d="M786 374 C900 316 1038 316 1152 374 C1218 408 1254 408 1280 394" stroke="#12436D" stroke-width="3" stroke-opacity="0.28"/>
    <path d="M808 458 C912 406 1032 406 1138 458 C1210 494 1250 494 1280 478" stroke="#E6E6E6" stroke-width="4"/>
    <path d="M842 536 C932 490 1038 490 1128 536 C1200 574 1248 574 1280 554" stroke="#EE0033" stroke-width="2" stroke-opacity="0.2"/>
    <circle cx="1134" cy="292" r="6" fill="#EE0033" fill-opacity="0.56"/>
    <circle cx="1152" cy="374" r="6" fill="#12436D" fill-opacity="0.5"/>
  </g>
  <rect x="0" y="0" width="18" height="720" fill="#EE0033"/>
  <rect x="18" y="0" width="6" height="720" fill="#E6E6E6"/>
</svg>
