<svg width="1280" height="720" viewBox="0 0 1280 720" xmlns="http://www.w3.org/2000/svg" data-background-id="bg_wave_ribbon_soft">
  <defs>
    <linearGradient id="waveRibbonRed" x1="0%" y1="100%" x2="100%" y2="0%">
      <stop offset="0%" stop-color="#EE0033" stop-opacity="0.38"/>
      <stop offset="100%" stop-color="#EE0033" stop-opacity="0.06"/>
    </linearGradient>
  </defs>
  <rect x="0" y="0" width="1280" height="720" fill="#FFFFFF"/>
  <path d="M0 510 C180 470 294 554 454 516 C642 472 770 404 948 454 C1088 494 1170 556 1280 520 V720 H0 Z" fill="#F2F2F2"/>
  <path d="M0 570 C186 528 330 616 514 564 C696 512 830 476 986 520 C1116 558 1194 620 1280 592 V720 H0 Z" fill="#E6E6E6" fill-opacity="0.72"/>
  <path d="M0 590 C196 540 328 624 500 580 C668 536 774 486 938 520 C1078 548 1160 620 1280 602 V650 C1158 668 1078 596 940 566 C780 532 672 584 506 628 C326 674 190 590 0 638 Z" fill="url(#waveRibbonRed)"/>
  <path d="M82 520 C212 492 292 542 400 520" stroke="#EE0033" stroke-width="3" stroke-opacity="0.2" fill="none"/>
  <path d="M858 468 C990 444 1068 500 1198 480" stroke="#EE0033" stroke-width="3" stroke-opacity="0.16" fill="none"/>
</svg>
